<svg width="1920" height="167" viewBox="0 0 1920 167" fill="none" xmlns="http://www.w3.org/2000/svg">
<path fill-rule="evenodd" clip-rule="evenodd" d="M0 0.25L79.5 6.50578C160.5 12.7616 319.5 25.2731 480 46.4465C640.5 68.1012 799.5 98.8988 960 105.155C1120.5 111.41 1279.5 92.6431 1440 86.8685C1600.5 80.6127 1759.5 86.8685 1840.5 89.7558L1920 92.6431V166.75H1840.5C1759.5 166.75 1600.5 166.75 1440 166.75C1279.5 166.75 1120.5 166.75 960 166.75C799.5 166.75 640.5 166.75 480 166.75C319.5 166.75 160.5 166.75 79.5 166.75H0V0.25Z" fill="#20DF7F" fill-opacity="0.8"/>
<path fill-rule="evenodd" clip-rule="evenodd" d="M0 66.85L64 80.17C128 93.49 256 120.13 384 113.47C512 106.81 640 66.85 768 40.21C896 13.57 1024 0.25 1152 0.25C1280 0.25 1408 13.57 1536 36.88C1664 60.19 1792 93.49 1856 110.14L1920 126.79V166.75H1856C1792 166.75 1664 166.75 1536 166.75C1408 166.75 1280 166.75 1152 166.75C1024 166.75 896 166.75 768 166.75C640 166.75 512 166.75 384 166.75C256 166.75 128 166.75 64 166.75H0V66.85Z" fill="#224957" fill-opacity="0.8"/>
</svg>
